<?xml version="1.0" standalone="no"?>
<!DOCTYPE svg PUBLIC "-//W3C//DTD SVG 20010904//EN"
 "http://www.w3.org/TR/2001/REC-SVG-20010904/DTD/svg10.dtd">
<svg version="1.0" xmlns="http://www.w3.org/2000/svg"
 width="26.000000pt" height="26.000000pt" viewBox="0 0 26.000000 26.000000"
 preserveAspectRatio="xMidYMid meet">
<metadata>
Created by potrace 1.13, written by Peter Selinger 2001-2015
</metadata>
<g transform="translate(0.000000,26.000000) scale(0.100000,-0.100000)"
fill="#000000" stroke="none">
<path d="M16 241 c-21 -23 -17 -57 7 -55 13 1 14 -2 7 -16 -15 -28 -12 -77 7
-113 9 -18 16 -38 15 -44 -2 -7 4 -13 13 -13 8 0 15 3 15 8 0 4 23 7 50 7 28
0 50 -3 50 -7 0 -5 7 -8 15 -8 9 0 15 6 13 13 -1 6 6 26 15 44 19 36 22 85 7
113 -7 14 -6 17 7 16 24 -2 28 32 7 55 -31 34 -81 17 -52 -18 12 -15 11 -15
-9 -5 -12 7 -36 12 -53 12 -17 0 -41 -5 -53 -12 -20 -10 -21 -10 -9 5 29 35
-21 52 -52 18z m100 -94 c-6 -39 -4 -44 23 -60 16 -9 32 -17 35 -17 12 0 5 23
-14 47 -37 48 -17 100 22 56 19 -22 20 -83 1 -104 -18 -22 -88 -22 -106 0 -31
35 -9 121 31 121 11 0 13 -9 8 -43z"/>
<path d="M110 250 c0 -5 9 -10 20 -10 11 0 20 5 20 10 0 6 -9 10 -20 10 -11 0
-20 -4 -20 -10z"/>
</g>
</svg>
